<svg width="254" height="58" viewBox="0 0 254 58" fill="none" xmlns="http://www.w3.org/2000/svg">
<circle opacity="0.64" cx="47" cy="29" r="20" fill="url(#paint0_radial_2223_199)"></circle>
<rect y="20" width="3" height="18" rx="1.5" fill="#B40719"></rect>
<rect x="8" y="14" width="3" height="30" rx="1.5" fill="#B40719"></rect>
<rect x="16" y="10" width="3" height="38" rx="1.5" fill="#B40719"></rect>
<rect x="24" y="7" width="3" height="44" rx="1.5" fill="#CA1D26"></rect>
<rect x="32" y="5" width="3" height="48" rx="1.5" fill="#CA1D26"></rect>
<rect x="40" y="6" width="3" height="46" rx="1.5" fill="#CA1D26"></rect>
<rect x="48" y="8" width="3" height="42" rx="1.5" fill="#EB434A"></rect>
<rect x="56" y="10" width="3" height="38" rx="1.5" fill="#EB434A"></rect>
<rect x="64" y="13" width="3" height="32" rx="1.5" fill="#EB434A"></rect>
<path d="M81.0341 46V11.0909H94.8068C97.4432 11.0909 99.6932 11.5625 101.557 12.5057C103.432 13.4375 104.858 14.7614 105.835 16.4773C106.824 18.1818 107.318 20.1875 107.318 22.4943C107.318 24.8125 106.818 26.8068 105.818 28.4773C104.818 30.1364 103.369 31.4091 101.472 32.2955C99.5852 33.1818 97.3011 33.625 94.6193 33.625H85.3977V27.6932H93.4261C94.8352 27.6932 96.0057 27.5 96.9375 27.1136C97.8693 26.7273 98.5625 26.1477 99.017 25.375C99.483 24.6023 99.7159 23.642 99.7159 22.4943C99.7159 21.3352 99.483 20.358 99.017 19.5625C98.5625 18.767 97.8636 18.1648 96.9205 17.7557C95.9886 17.3352 94.8125 17.125 93.392 17.125H88.4148V46H81.0341ZM99.8864 30.1136L108.562 46H100.415L91.9261 30.1136H99.8864ZM120.068 46.5114C117.374 46.5114 115.056 45.9659 113.113 44.875C111.181 43.7727 109.693 42.2159 108.647 40.2045C107.602 38.1818 107.079 35.7898 107.079 33.0284C107.079 30.3352 107.602 27.9716 108.647 25.9375C109.693 23.9034 111.164 22.3182 113.062 21.1818C114.971 20.0455 117.21 19.4773 119.778 19.4773C121.505 19.4773 123.113 19.7557 124.602 20.3125C126.102 20.858 127.409 21.6818 128.522 22.7841C129.647 23.8864 130.522 25.2727 131.147 26.9432C131.772 28.6023 132.085 30.5455 132.085 32.7727V34.767H109.977V30.267H125.249C125.249 29.2216 125.022 28.2955 124.568 27.4886C124.113 26.6818 123.482 26.0511 122.676 25.5966C121.88 25.1307 120.954 24.8977 119.897 24.8977C118.795 24.8977 117.818 25.1534 116.965 25.6648C116.124 26.1648 115.465 26.8409 114.988 27.6932C114.511 28.5341 114.267 29.4716 114.255 30.5057V34.7841C114.255 36.0795 114.494 37.1989 114.971 38.142C115.46 39.0852 116.147 39.8125 117.034 40.3239C117.92 40.8352 118.971 41.0909 120.187 41.0909C120.994 41.0909 121.732 40.9773 122.403 40.75C123.073 40.5227 123.647 40.1818 124.124 39.7273C124.602 39.2727 124.965 38.7159 125.215 38.0568L131.931 38.5C131.59 40.1136 130.892 41.5227 129.835 42.7273C128.789 43.9205 127.437 44.8523 125.778 45.5227C124.13 46.1818 122.227 46.5114 120.068 46.5114ZM142.631 46.4261C140.642 46.4261 138.841 45.9148 137.228 44.892C135.625 43.858 134.353 42.3409 133.409 40.3409C132.478 38.3295 132.012 35.8636 132.012 32.9432C132.012 29.9432 132.495 27.4489 133.461 25.4602C134.427 23.4602 135.711 21.9659 137.313 20.9773C138.927 19.9773 140.694 19.4773 142.614 19.4773C144.08 19.4773 145.302 19.7273 146.279 20.2273C147.267 20.7159 148.063 21.3295 148.665 22.0682C149.279 22.7955 149.745 23.5114 150.063 24.2159H150.284V11.0909H157.529V46H150.37V41.8068H150.063C149.722 42.5341 149.239 43.2557 148.614 43.9716C148 44.6761 147.199 45.2614 146.211 45.7273C145.233 46.1932 144.04 46.4261 142.631 46.4261ZM144.932 40.6477C146.103 40.6477 147.091 40.3295 147.898 39.6932C148.716 39.0455 149.341 38.142 149.773 36.983C150.216 35.8239 150.438 34.4659 150.438 32.9091C150.438 31.3523 150.222 30 149.79 28.8523C149.358 27.7045 148.733 26.8182 147.915 26.1932C147.097 25.5682 146.103 25.2557 144.932 25.2557C143.739 25.2557 142.733 25.5795 141.915 26.2273C141.097 26.875 140.478 27.7727 140.057 28.9205C139.637 30.0682 139.427 31.3977 139.427 32.9091C139.427 34.4318 139.637 35.7784 140.057 36.9489C140.489 38.108 141.108 39.017 141.915 39.6761C142.733 40.3239 143.739 40.6477 144.932 40.6477ZM178.733 21.1307C178.596 19.7557 178.011 18.6875 176.977 17.9261C175.943 17.1648 174.54 16.7841 172.767 16.7841C171.562 16.7841 170.545 16.9545 169.716 17.2955C168.886 17.625 168.25 18.0852 167.807 18.6761C167.375 19.267 167.159 19.9375 167.159 20.6875C167.136 21.3125 167.267 21.858 167.551 22.3239C167.846 22.7898 168.25 23.1932 168.761 23.5341C169.273 23.8636 169.864 24.1534 170.534 24.4034C171.204 24.642 171.92 24.8466 172.682 25.017L175.818 25.767C177.341 26.108 178.739 26.5625 180.011 27.1307C181.284 27.6989 182.386 28.3977 183.318 29.2273C184.25 30.0568 184.971 31.0341 185.483 32.1591C186.006 33.2841 186.273 34.5739 186.284 36.0284C186.273 38.1648 185.727 40.017 184.648 41.5852C183.579 43.142 182.034 44.3523 180.011 45.2159C178 46.0682 175.574 46.4943 172.733 46.4943C169.915 46.4943 167.46 46.0625 165.369 45.1989C163.29 44.3352 161.665 43.0568 160.494 41.3636C159.335 39.6591 158.727 37.5511 158.67 35.0398H165.812C165.892 36.2102 166.227 37.1875 166.818 37.9716C167.42 38.7443 168.221 39.3295 169.221 39.7273C170.233 40.1136 171.375 40.3068 172.648 40.3068C173.898 40.3068 174.983 40.125 175.903 39.7614C176.835 39.3977 177.557 38.892 178.068 38.2443C178.579 37.5966 178.835 36.8523 178.835 36.0114C178.835 35.2273 178.602 34.5682 178.136 34.0341C177.682 33.5 177.011 33.0455 176.125 32.6705C175.25 32.2955 174.176 31.9545 172.903 31.6477L169.102 30.6932C166.159 29.9773 163.835 28.858 162.131 27.3352C160.426 25.8125 159.579 23.7614 159.591 21.1818C159.579 19.0682 160.142 17.2216 161.278 15.642C162.426 14.0625 164 12.8295 166 11.9432C168 11.0568 170.273 10.6136 172.818 10.6136C175.409 10.6136 177.67 11.0568 179.602 11.9432C181.545 12.8295 183.057 14.0625 184.136 15.642C185.216 17.2216 185.773 19.0511 185.807 21.1307H178.733ZM194.533 30.8636V46H187.272V11.0909H194.329V24.4375H194.636C195.227 22.892 196.181 21.6818 197.499 20.8068C198.818 19.9205 200.471 19.4773 202.46 19.4773C204.278 19.4773 205.863 19.875 207.215 20.6705C208.579 21.4545 209.636 22.5852 210.386 24.0625C211.147 25.5284 211.522 27.2841 211.511 29.3295V46H204.249V30.625C204.261 29.0114 203.852 27.7557 203.022 26.858C202.204 25.9602 201.056 25.5114 199.579 25.5114C198.59 25.5114 197.715 25.7216 196.954 26.142C196.204 26.5625 195.613 27.1761 195.181 27.983C194.761 28.7784 194.545 29.7386 194.533 30.8636ZM213.385 46V19.8182H220.647V46H213.385ZM217.033 16.4432C215.953 16.4432 215.027 16.0852 214.255 15.3693C213.493 14.642 213.113 13.7727 213.113 12.7614C213.113 11.7614 213.493 10.9034 214.255 10.1875C215.027 9.46023 215.953 9.09659 217.033 9.09659C218.113 9.09659 219.033 9.46023 219.794 10.1875C220.567 10.9034 220.953 11.7614 220.953 12.7614C220.953 13.7727 220.567 14.642 219.794 15.3693C219.033 16.0852 218.113 16.4432 217.033 16.4432ZM236.703 19.8182V25.2727H220.544V19.8182H236.703ZM224.243 46V17.9261C224.243 16.0284 224.612 14.4545 225.351 13.2045C226.101 11.9545 227.123 11.017 228.419 10.392C229.714 9.76704 231.186 9.45454 232.834 9.45454C233.947 9.45454 234.964 9.53977 235.885 9.71023C236.817 9.88068 237.51 10.0341 237.964 10.1705L236.669 15.625C236.385 15.5341 236.032 15.4489 235.612 15.3693C235.203 15.2898 234.782 15.25 234.351 15.25C233.282 15.25 232.538 15.5 232.118 16C231.697 16.4886 231.487 17.1761 231.487 18.0625V46H224.243ZM251.225 19.8182V25.2727H235.458V19.8182H251.225ZM239.038 13.5455H246.299V37.9545C246.299 38.625 246.401 39.1477 246.606 39.5227C246.81 39.8864 247.094 40.142 247.458 40.2898C247.833 40.4375 248.265 40.5114 248.754 40.5114C249.094 40.5114 249.435 40.483 249.776 40.4261C250.117 40.358 250.379 40.3068 250.56 40.2727L251.702 45.6761C251.339 45.7898 250.827 45.9205 250.168 46.0682C249.509 46.2273 248.708 46.3239 247.765 46.358C246.015 46.4261 244.481 46.1932 243.163 45.6591C241.856 45.125 240.839 44.2955 240.111 43.1705C239.384 42.0455 239.026 40.625 239.038 38.9091V13.5455Z" fill="#B40719"></path>
<defs>
<radialGradient id="paint0_radial_2223_199" cx="0" cy="0" r="1" gradientUnits="userSpaceOnUse" gradientTransform="translate(47 29) rotate(90) scale(20)">
<stop stop-color="#EB4343"></stop>
<stop offset="1" stop-color="#EB4343" stop-opacity="0"></stop>
</radialGradient>
</defs>
</svg>